<mxfile host="app.diagrams.net" agent="Mozilla/5.0 (Macintosh; Intel Mac OS X 10_15_7) AppleWebKit/537.36 (KHTML, like Gecko) Chrome/126.0.0.0 Safari/537.36" version="24.7.7">
  <diagram name="Page-1" id="JHWJmXMjRtKxKoGuPYrV">
    <mxGraphModel dx="1341" dy="900" grid="1" gridSize="10" guides="1" tooltips="1" connect="1" arrows="1" fold="1" page="1" pageScale="1" pageWidth="850" pageHeight="1100" math="0" shadow="0">
      <root>
        <mxCell id="0" />
        <mxCell id="1" parent="0" />
        <mxCell id="xf18A27tiEeVpOuetq4A-1" value="AWS Step Functions workflow" style="points=[[0,0],[0.25,0],[0.5,0],[0.75,0],[1,0],[1,0.25],[1,0.5],[1,0.75],[1,1],[0.75,1],[0.5,1],[0.25,1],[0,1],[0,0.75],[0,0.5],[0,0.25]];outlineConnect=0;gradientColor=none;html=1;whiteSpace=wrap;fontSize=12;fontStyle=0;container=1;pointerEvents=0;collapsible=0;recursiveResize=0;shape=mxgraph.aws4.group;grIcon=mxgraph.aws4.group_aws_step_functions_workflow;strokeColor=#CD2264;fillColor=none;verticalAlign=top;align=left;spacingLeft=30;fontColor=#CD2264;dashed=0;" vertex="1" parent="1">
          <mxGeometry x="370" y="64" width="370" height="446" as="geometry" />
        </mxCell>
        <mxCell id="xf18A27tiEeVpOuetq4A-4" value="" style="sketch=0;points=[[0,0,0],[0.25,0,0],[0.5,0,0],[0.75,0,0],[1,0,0],[0,1,0],[0.25,1,0],[0.5,1,0],[0.75,1,0],[1,1,0],[0,0.25,0],[0,0.5,0],[0,0.75,0],[1,0.25,0],[1,0.5,0],[1,0.75,0]];outlineConnect=0;fontColor=#232F3E;fillColor=#ED7100;strokeColor=#ffffff;dashed=0;verticalLabelPosition=bottom;verticalAlign=top;align=center;html=1;fontSize=12;fontStyle=0;aspect=fixed;shape=mxgraph.aws4.resourceIcon;resIcon=mxgraph.aws4.lambda;" vertex="1" parent="xf18A27tiEeVpOuetq4A-1">
          <mxGeometry x="151" y="96" width="78" height="78" as="geometry" />
        </mxCell>
        <mxCell id="xf18A27tiEeVpOuetq4A-5" value="" style="sketch=0;points=[[0,0,0],[0.25,0,0],[0.5,0,0],[0.75,0,0],[1,0,0],[0,1,0],[0.25,1,0],[0.5,1,0],[0.75,1,0],[1,1,0],[0,0.25,0],[0,0.5,0],[0,0.75,0],[1,0.25,0],[1,0.5,0],[1,0.75,0]];outlineConnect=0;fontColor=#232F3E;fillColor=#ED7100;strokeColor=#ffffff;dashed=0;verticalLabelPosition=bottom;verticalAlign=top;align=center;html=1;fontSize=12;fontStyle=0;aspect=fixed;shape=mxgraph.aws4.resourceIcon;resIcon=mxgraph.aws4.lambda;" vertex="1" parent="xf18A27tiEeVpOuetq4A-1">
          <mxGeometry x="150" y="296" width="78" height="78" as="geometry" />
        </mxCell>
        <mxCell id="xf18A27tiEeVpOuetq4A-9" value="" style="endArrow=classic;html=1;rounded=0;" edge="1" parent="xf18A27tiEeVpOuetq4A-1" source="xf18A27tiEeVpOuetq4A-4" target="xf18A27tiEeVpOuetq4A-5">
          <mxGeometry width="50" height="50" relative="1" as="geometry">
            <mxPoint x="30" y="366" as="sourcePoint" />
            <mxPoint x="80" y="316" as="targetPoint" />
          </mxGeometry>
        </mxCell>
        <mxCell id="xf18A27tiEeVpOuetq4A-15" value="get weather" style="text;strokeColor=none;align=center;fillColor=none;html=1;verticalAlign=middle;whiteSpace=wrap;rounded=0;" vertex="1" parent="xf18A27tiEeVpOuetq4A-1">
          <mxGeometry x="229" y="120" width="60" height="30" as="geometry" />
        </mxCell>
        <mxCell id="xf18A27tiEeVpOuetq4A-16" value="Lambda" style="text;strokeColor=none;align=center;fillColor=none;html=1;verticalAlign=middle;whiteSpace=wrap;rounded=0;fontStyle=1" vertex="1" parent="xf18A27tiEeVpOuetq4A-1">
          <mxGeometry x="228" y="96" width="60" height="30" as="geometry" />
        </mxCell>
        <mxCell id="xf18A27tiEeVpOuetq4A-17" value="Lambda" style="text;strokeColor=none;align=center;fillColor=none;html=1;verticalAlign=middle;whiteSpace=wrap;rounded=0;fontStyle=1" vertex="1" parent="xf18A27tiEeVpOuetq4A-1">
          <mxGeometry x="228" y="296" width="60" height="30" as="geometry" />
        </mxCell>
        <mxCell id="xf18A27tiEeVpOuetq4A-18" value="process weather response" style="text;strokeColor=none;align=center;fillColor=none;html=1;verticalAlign=middle;whiteSpace=wrap;rounded=0;" vertex="1" parent="xf18A27tiEeVpOuetq4A-1">
          <mxGeometry x="229" y="329" width="60" height="30" as="geometry" />
        </mxCell>
        <mxCell id="xf18A27tiEeVpOuetq4A-3" value="" style="sketch=0;points=[[0,0,0],[0.25,0,0],[0.5,0,0],[0.75,0,0],[1,0,0],[0,1,0],[0.25,1,0],[0.5,1,0],[0.75,1,0],[1,1,0],[0,0.25,0],[0,0.5,0],[0,0.75,0],[1,0.25,0],[1,0.5,0],[1,0.75,0]];outlineConnect=0;fontColor=#232F3E;fillColor=#E7157B;strokeColor=#ffffff;dashed=0;verticalLabelPosition=bottom;verticalAlign=top;align=center;html=1;fontSize=12;fontStyle=0;aspect=fixed;shape=mxgraph.aws4.resourceIcon;resIcon=mxgraph.aws4.api_gateway;" vertex="1" parent="1">
          <mxGeometry x="201" y="280" width="80" height="80" as="geometry" />
        </mxCell>
        <mxCell id="xf18A27tiEeVpOuetq4A-6" value="" style="endArrow=classic;html=1;rounded=0;startArrow=classic;startFill=1;" edge="1" parent="1" source="xf18A27tiEeVpOuetq4A-12" target="xf18A27tiEeVpOuetq4A-3">
          <mxGeometry width="50" height="50" relative="1" as="geometry">
            <mxPoint x="120.8748745469752" y="319.14486474139153" as="sourcePoint" />
            <mxPoint x="450" y="380" as="targetPoint" />
          </mxGeometry>
        </mxCell>
        <mxCell id="xf18A27tiEeVpOuetq4A-8" value="" style="edgeStyle=elbowEdgeStyle;elbow=horizontal;endArrow=classic;html=1;curved=0;rounded=0;endSize=8;startSize=8;exitX=1;exitY=0.5;exitDx=0;exitDy=0;exitPerimeter=0;startArrow=classic;startFill=1;" edge="1" parent="1" source="xf18A27tiEeVpOuetq4A-3" target="xf18A27tiEeVpOuetq4A-4">
          <mxGeometry width="50" height="50" relative="1" as="geometry">
            <mxPoint x="410" y="300" as="sourcePoint" />
            <mxPoint x="460" y="250" as="targetPoint" />
            <Array as="points">
              <mxPoint x="430" y="260" />
            </Array>
          </mxGeometry>
        </mxCell>
        <mxCell id="xf18A27tiEeVpOuetq4A-10" value="" style="edgeStyle=elbowEdgeStyle;elbow=horizontal;endArrow=none;html=1;curved=0;rounded=0;endSize=8;startSize=8;endFill=0;" edge="1" parent="1" target="xf18A27tiEeVpOuetq4A-5">
          <mxGeometry width="50" height="50" relative="1" as="geometry">
            <mxPoint x="430" y="320" as="sourcePoint" />
            <mxPoint x="450" y="380" as="targetPoint" />
          </mxGeometry>
        </mxCell>
        <mxCell id="xf18A27tiEeVpOuetq4A-12" value="" style="sketch=0;outlineConnect=0;fontColor=#232F3E;gradientColor=none;fillColor=#232F3D;strokeColor=none;dashed=0;verticalLabelPosition=bottom;verticalAlign=top;align=center;html=1;fontSize=12;fontStyle=0;aspect=fixed;pointerEvents=1;shape=mxgraph.aws4.client;" vertex="1" parent="1">
          <mxGeometry x="42" y="283" width="78" height="76" as="geometry" />
        </mxCell>
        <mxCell id="xf18A27tiEeVpOuetq4A-13" value="User" style="text;strokeColor=none;align=center;fillColor=none;html=1;verticalAlign=middle;whiteSpace=wrap;rounded=0;fontStyle=1" vertex="1" parent="1">
          <mxGeometry x="51" y="360" width="60" height="30" as="geometry" />
        </mxCell>
        <mxCell id="xf18A27tiEeVpOuetq4A-14" value="API Gateway" style="text;strokeColor=none;align=center;fillColor=none;html=1;verticalAlign=middle;whiteSpace=wrap;rounded=0;fontStyle=1" vertex="1" parent="1">
          <mxGeometry x="201" y="360" width="80" height="30" as="geometry" />
        </mxCell>
        <mxCell id="xf18A27tiEeVpOuetq4A-19" value="/GET" style="text;strokeColor=none;align=center;fillColor=none;html=1;verticalAlign=middle;whiteSpace=wrap;rounded=0;" vertex="1" parent="1">
          <mxGeometry x="130" y="283" width="60" height="30" as="geometry" />
        </mxCell>
      </root>
    </mxGraphModel>
  </diagram>
</mxfile>
